<svg xmlns="http://www.w3.org/2000/svg" viewBox="0 0 112.67 150.92"><defs><style>.cls-1{fill:#a89a5e;}</style></defs><title>Asset 3</title><g id="Layer_2" data-name="Layer 2"><g id="Layer_1-2" data-name="Layer 1"><path class="cls-1" d="M86.92,3.51C86.92,0,66.29-.1,58.69,0c-1.87,0-3.73,0-5.6,0-7.87,0-27.34.3-27.34,3.44H0S6.5,9,6.5,29.26s16,51.5,37.25,51.5V99s-6-.72-6,3.19H31.66S28.19,102,28.19,108c0,0-5,.42-5,14.67,0,0-3,8.75-7.25,13.25v13.25s6.5,1.75,40.5,1.75,40.33-1.75,40.33-1.75V135.92c-4.25-4.5-7.25-13.25-7.25-13.25,0-14.25-5-14.67-5-14.67,0-6-3.47-5.81-3.47-5.81H74.95c0-3.91-6-3.19-6-3.19V80.76c21.25,0,37.25-31.25,37.25-51.5s6.5-25.75,6.5-25.75ZM43.42,73H41c-24.5,0-28.55-60-28.55-60H23.75s-.08,19.42,11.67,31.17S43.42,73,43.42,73Zm28.22,0H69.19s-3.75-17.08,8-28.83S88.85,13,88.85,13h11.33S96.14,73,71.64,73Z"/></g></g></svg>