<svg xmlns="http://www.w3.org/2000/svg" viewBox="0 0 71.75 153.46"><defs><style>.cls-1{fill:#a89a5e;}</style></defs><title>Asset 7</title><g id="Layer_2" data-name="Layer 2"><g id="Layer_1-2" data-name="Layer 1"><path class="cls-1" d="M55,129.71c-2.25-1.25-10.75-20.25-4-29.75C67.35,77,71.75,56.21,71.75,39s-9.5-23-9.5-23V3.21c-2-2-17.79-2.89-23.93-3.15q-2.44-.11-4.88,0C27.29.32,11.51,1.2,9.5,3.21V16S0,21.71,0,39s4.4,38,20.75,61c6.75,9.5-1.75,28.5-4,29.75s-8.59,4.47-3.12,9.94c1.72,1.72-3.56,5.56,1.13,7.94s6,5.88,21.13,5.88S52.31,150,57,147.58s-.59-6.22,1.13-7.94C63.59,134.18,57.25,131,55,129.71Z"/></g></g></svg>