<svg xmlns="http://www.w3.org/2000/svg" viewBox="0 0 86 158.5"><defs><style>.cls-1{fill:#a89a5e;}</style></defs><title>Asset 6</title><g id="Layer_2" data-name="Layer 2"><g id="Layer_1-2" data-name="Layer 1"><path class="cls-1" d="M67.5,54.5c19-8,18.5-30,18.5-30V0H65V11.17H21V0H0V24.5s-.5,22,18.5,30c0,0,5.08,11.5,20.75,11.5v2.5s-3.83,1.17-3.83,4.83,4,4,4,4V90.17s-.29,13.83-17.79,25.5c0,0-.08,3.4-3.71,6.58v16.19a15.68,15.68,0,0,1-5.25,7.19v6S20.25,158.5,43,158.5s30.38-6.87,30.38-6.87v-6a15.68,15.68,0,0,1-5.25-7.19V122.25c-3.62-3.19-3.71-6.58-3.71-6.58C46.92,104,46.63,90.17,46.63,90.17V77.29s4-.29,4-4-3.83-4.83-3.83-4.83V66C62.42,66,67.5,54.5,67.5,54.5ZM66.25,37.42V25.83c0-4.08,3.5-4.08,3.5-4.08V6.13H80.38c0,3.35-.05,6.71-.19,10.06A118.86,118.86,0,0,1,79,29.76a44.33,44.33,0,0,1-2,8.34,19.21,19.21,0,0,1-6.55,8.71c-1.06.82-2.35,1.11-3.23-.12s-.91-3-.91-4.52Zm-46.5,0v4.74c0,1.53,0,3.21-.91,4.52s-2.17.95-3.23.12A19.21,19.21,0,0,1,9.07,38.1a44.33,44.33,0,0,1-2-8.34A118.85,118.85,0,0,1,5.82,16.18c-.14-3.35-.19-6.7-.19-10.06H16.25V21.75s3.5,0,3.5,4.08Z"/></g></g></svg>