<svg xmlns="http://www.w3.org/2000/svg" viewBox="0 0 95 151.06"><defs><style>.cls-1{fill:#a89a5e;}</style></defs><title>Asset 4</title><g id="Layer_2" data-name="Layer 2"><g id="Layer_1-2" data-name="Layer 1"><path class="cls-1" d="M59.25,133.06c-4.37-4.37,2-7.44,2-8.87a10.38,10.38,0,0,1,1.08-5.12C82.08,99.31,95,41.06,95,24.4S85.19,0,78.69,0,66.75,1.38,66.75,10.69c0,4.16,2.78,7.53,5.73,10.17,1.08,1,2.22,1.87,3.36,2.77A24.44,24.44,0,0,1,79,26.21a5.25,5.25,0,0,1,.11,6.71c-1.41,2-3.77,2.57-6.07,2.57,1.94,0,1.88-3.56,1.88-3.56,0-5.26-18.63-5.64-25.15-5.61H45.28c-6.52,0-25.15.35-25.15,5.61,0,0-.06,3.56,1.87,3.56-2.3,0-4.66-.6-6.07-2.57A5.25,5.25,0,0,1,16,26.21a24.44,24.44,0,0,1,3.11-2.59c1.14-.9,2.28-1.8,3.36-2.77,2.95-2.64,5.73-6,5.73-10.17C28.25,1.38,22.81,0,16.31,0S0,7.73,0,24.4s12.92,74.92,32.67,94.67a10.38,10.38,0,0,1,1.08,5.13c0,1.44,6.38,4.5,2,8.88s-15.25,8-15.25,12.67,13.33,5.33,27,5.33,27-.67,27-5.33S63.63,137.44,59.25,133.06ZM85.38,23.19C84,20.44,69.5,12.31,74.88,6.94s13.38,5.75,13.38,16.75-2.37,33.38-7.06,38.06c0,0,5.5-16-5.19-17.31C76,44.44,91.25,34.94,85.38,23.19ZM13.81,61.75C9.13,57.06,6.75,34.69,6.75,23.69s8-22.12,13.38-16.75S11,20.44,9.63,23.19C3.75,34.94,19,44.44,19,44.44,8.31,45.75,13.81,61.75,13.81,61.75Z"/></g></g></svg>